<svg width="210" height="48" viewBox="0 0 210 48" fill="none" xmlns="http://www.w3.org/2000/svg">
<path d="M206.655 41.1679L207.147 41.1178L208.008 42.7946H207.417L206.655 41.1679ZM206.557 38.0146C204.81 38.0146 203.654 39.2409 203.654 41.0177C203.654 42.8446 204.81 44.0709 206.557 44.0709C208.352 44.0709 209.606 42.8446 209.606 41.0177C209.606 39.2409 208.352 38.0146 206.557 38.0146ZM0 41.5933L8.21504 33.0344L4.72242 33.4849C13.331 39.8415 21.8904 33.0344 20.5376 22.5485C15.889 22.5485 13.1834 20.8217 13.1834 18.0188C13.1834 16.2419 14.3394 14.3149 16.676 12.2628L14.0197 12.463C25.0632 25.6017 37.5826 30.9823 53.2994 26.8279C50.5692 12.1126 40.5095 2.60271 22.0134 0C23.858 10.586 26.5636 15.0657 36.6233 19.9458V14.7153C30.8679 11.8123 28.7772 8.45881 27.7688 4.72993L26.5144 5.55579C37.4596 7.5829 46.2157 14.5652 47.8145 24.7007L49.1181 23.024C34.5081 24.951 26.8587 19.9708 15.0527 7.03232C10.5025 10.536 8.60857 14.5652 8.60857 17.9687C8.60857 23.4244 12.7653 26.6778 19.8243 26.6778L16.3809 24.0751C16.7252 31.8582 11.4863 33.4849 5.63247 28.805L0 34.6611V41.5933ZM5.60787 19.195C3.83696 18.3942 1.94308 17.5933 0 16.8425V22.0229C1.94308 22.7737 3.83696 23.5495 5.60787 24.4505V19.195ZM24.0056 27.5287V33.585C29.4659 37.7143 34.3605 42.4442 39.3535 48H45.4533C38.6648 39.6913 31.655 33.0845 24.0056 27.5287ZM40.5095 31.5579V38.0647C42.2066 39.8415 43.9037 41.6684 45.65 43.6204H51.6022C48.0358 39.1408 44.4202 34.9614 40.5095 31.5579ZM206.163 40.9176H206.753C207.196 40.9176 207.516 40.7174 207.516 40.367C207.516 40.0167 207.221 39.8165 206.753 39.8165H206.163V40.9176ZM208.008 40.367C208.008 40.9677 207.516 41.3931 206.753 41.3931H206.163V42.8196H205.671V39.366H206.778C207.491 39.341 208.008 39.7414 208.008 40.367ZM206.557 37.6142C208.598 37.6142 210 38.9906 210 41.0177C210 43.0949 208.598 44.4713 206.557 44.4713C204.564 44.4713 203.261 43.0949 203.261 41.0177C203.261 38.9906 204.54 37.6142 206.557 37.6142ZM200.654 23.5746H194.554V35.6872C194.554 38.1898 195.71 38.7904 197.997 38.7904C198.735 38.7904 199.645 38.7404 200.654 38.6402V43.6204C199.448 43.7706 198.292 43.8707 197.309 43.8707C191.553 43.8707 189.093 41.268 189.093 35.6872V23.5746H184.543V18.1689H189.093V12.8384L194.554 11.1616V18.194H200.654V23.5746ZM175.148 18.1689H180.608V43.6204H175.148V18.1689ZM177.829 14.415C175.787 14.415 174.434 13.0386 174.434 10.9614C174.434 8.88425 175.836 7.50782 177.927 7.50782C179.919 7.50782 181.272 8.88425 181.272 10.9614C181.297 13.0386 179.895 14.415 177.829 14.415ZM157.07 38.9906C161.472 38.9906 164.866 35.8373 164.866 31.0073C164.866 26.1272 161.669 22.9239 157.07 22.9239C152.372 22.9239 149.125 26.4275 149.125 31.0073C149.125 35.3869 152.372 38.9906 157.07 38.9906ZM157.98 17.6684C164.842 17.6684 170.327 23.4745 170.327 31.0073C170.327 38.2398 164.719 44.3462 157.98 44.3462C154.02 44.3462 151.117 42.8196 149.125 40.0167V43.6204H143.812V8.18352H149.125V21.8227C151.117 19.0949 154.02 17.6684 157.98 17.6684ZM125.611 38.9906C130.26 38.9906 133.408 35.5871 133.408 31.0073C133.408 26.4275 130.506 22.9239 125.611 22.9239C121.11 22.9239 117.814 26.0271 117.814 31.0073C117.814 35.7372 121.061 38.9906 125.611 38.9906ZM126.472 17.6684C133.482 17.6684 138.869 23.3243 138.869 31.0073C138.869 38.39 133.359 44.3462 126.472 44.3462C122.709 44.3462 119.807 42.8196 117.814 40.0167V43.6204H112.354V8.18352H117.814V21.8227C119.807 19.0949 122.709 17.6684 126.472 17.6684ZM92.948 38.9906C97.5474 38.9906 100.794 35.487 100.794 31.0073C100.794 26.5276 97.7442 22.9239 92.948 22.9239C88.1026 22.9239 84.9543 26.2774 84.9543 31.0073C84.9543 35.537 88.0534 38.9906 92.948 38.9906ZM100.794 18.1689H106.058V43.6204H100.794V40.0167C98.7034 42.8196 95.8011 44.3462 92.0871 44.3462C85.0281 44.3462 79.6908 38.3399 79.6908 31.0073C79.6908 23.4745 84.8313 17.6684 92.0871 17.6684C95.8011 17.6684 98.6788 19.0949 100.794 21.8478V18.1689ZM70.4919 22.5485C71.8939 19.4453 74.4519 17.8186 78.1413 17.8186V23.7247C73.837 23.7247 70.4919 26.0772 70.4919 30.8571V43.6455H65.0316V18.1689H70.4919V22.5485Z" fill="#0090CC"/>
</svg>
